<mxfile host="app.diagrams.net" modified="2023-11-15T08:02:02.710Z" agent="Mozilla/5.0 (Windows NT 10.0; Win64; x64) AppleWebKit/537.36 (KHTML, like Gecko) Chrome/119.0.0.0 Safari/537.36 Edg/119.0.0.0" etag="ZLazpcICmCONf5gy2Hly" version="22.1.1" type="github">
  <diagram name="Page-1" id="42789a77-a242-8287-6e28-9cd8cfd52e62">
    <mxGraphModel dx="992" dy="542" grid="1" gridSize="10" guides="1" tooltips="1" connect="1" arrows="1" fold="1" page="1" pageScale="1" pageWidth="1100" pageHeight="850" background="none" math="0" shadow="0">
      <root>
        <mxCell id="0" />
        <mxCell id="1" parent="0" />
        <mxCell id="i4aStX0e1IdVu9Nv6gjd-1" value="مشتری" style="shape=umlActor;verticalLabelPosition=bottom;verticalAlign=top;html=1;outlineConnect=0;" vertex="1" parent="1">
          <mxGeometry x="230" y="190" width="30" height="60" as="geometry" />
        </mxCell>
        <mxCell id="i4aStX0e1IdVu9Nv6gjd-5" style="edgeStyle=orthogonalEdgeStyle;rounded=0;orthogonalLoop=1;jettySize=auto;html=1;" edge="1" parent="1" source="i4aStX0e1IdVu9Nv6gjd-4" target="i4aStX0e1IdVu9Nv6gjd-1">
          <mxGeometry relative="1" as="geometry" />
        </mxCell>
        <mxCell id="i4aStX0e1IdVu9Nv6gjd-4" value="مشتری NRPC" style="shape=umlActor;verticalLabelPosition=bottom;verticalAlign=top;html=1;outlineConnect=0;" vertex="1" parent="1">
          <mxGeometry x="230" y="340" width="30" height="60" as="geometry" />
        </mxCell>
        <mxCell id="i4aStX0e1IdVu9Nv6gjd-6" value="تبدیل ارز" style="ellipse;whiteSpace=wrap;html=1;" vertex="1" parent="1">
          <mxGeometry x="360" y="370" width="110" height="80" as="geometry" />
        </mxCell>
        <mxCell id="i4aStX0e1IdVu9Nv6gjd-8" value="" style="endArrow=none;html=1;rounded=0;entryX=0;entryY=0.5;entryDx=0;entryDy=0;exitX=0.5;exitY=0.5;exitDx=0;exitDy=0;exitPerimeter=0;" edge="1" parent="1" source="i4aStX0e1IdVu9Nv6gjd-4" target="i4aStX0e1IdVu9Nv6gjd-6">
          <mxGeometry width="50" height="50" relative="1" as="geometry">
            <mxPoint x="310" y="400" as="sourcePoint" />
            <mxPoint x="360" y="350" as="targetPoint" />
          </mxGeometry>
        </mxCell>
        <mxCell id="i4aStX0e1IdVu9Nv6gjd-9" value="" style="endArrow=none;html=1;rounded=0;" edge="1" parent="1">
          <mxGeometry width="50" height="50" relative="1" as="geometry">
            <mxPoint x="260" y="210" as="sourcePoint" />
            <mxPoint x="410" y="100" as="targetPoint" />
          </mxGeometry>
        </mxCell>
        <mxCell id="i4aStX0e1IdVu9Nv6gjd-10" value="" style="endArrow=none;html=1;rounded=0;" edge="1" parent="1">
          <mxGeometry width="50" height="50" relative="1" as="geometry">
            <mxPoint x="260" y="210" as="sourcePoint" />
            <mxPoint x="560" y="210" as="targetPoint" />
          </mxGeometry>
        </mxCell>
        <mxCell id="i4aStX0e1IdVu9Nv6gjd-11" value="" style="endArrow=none;html=1;rounded=0;" edge="1" parent="1">
          <mxGeometry width="50" height="50" relative="1" as="geometry">
            <mxPoint x="260" y="210" as="sourcePoint" />
            <mxPoint x="450" y="300" as="targetPoint" />
          </mxGeometry>
        </mxCell>
        <mxCell id="i4aStX0e1IdVu9Nv6gjd-12" value="برداشت وجه" style="ellipse;whiteSpace=wrap;html=1;" vertex="1" parent="1">
          <mxGeometry x="450" y="280" width="90" height="60" as="geometry" />
        </mxCell>
        <mxCell id="i4aStX0e1IdVu9Nv6gjd-13" value="سپرده گذاری وجه" style="ellipse;whiteSpace=wrap;html=1;" vertex="1" parent="1">
          <mxGeometry x="560" y="180" width="80" height="60" as="geometry" />
        </mxCell>
        <mxCell id="i4aStX0e1IdVu9Nv6gjd-14" value="باز کردن حساب" style="ellipse;whiteSpace=wrap;html=1;" vertex="1" parent="1">
          <mxGeometry x="410" y="70" width="90" height="60" as="geometry" />
        </mxCell>
        <mxCell id="i4aStX0e1IdVu9Nv6gjd-15" value="" style="endArrow=none;html=1;rounded=0;" edge="1" parent="1">
          <mxGeometry width="50" height="50" relative="1" as="geometry">
            <mxPoint x="500" y="100" as="sourcePoint" />
            <mxPoint x="740" y="100" as="targetPoint" />
          </mxGeometry>
        </mxCell>
        <mxCell id="i4aStX0e1IdVu9Nv6gjd-17" value="کارمند بانک" style="shape=umlActor;verticalLabelPosition=bottom;verticalAlign=top;html=1;outlineConnect=0;" vertex="1" parent="1">
          <mxGeometry x="760" y="70" width="30" height="60" as="geometry" />
        </mxCell>
        <mxCell id="i4aStX0e1IdVu9Nv6gjd-21" value="" style="endArrow=none;dashed=1;html=1;rounded=0;" edge="1" parent="1">
          <mxGeometry width="50" height="50" relative="1" as="geometry">
            <mxPoint x="640" y="209.52" as="sourcePoint" />
            <mxPoint x="810" y="209.52" as="targetPoint" />
            <Array as="points" />
          </mxGeometry>
        </mxCell>
        <mxCell id="i4aStX0e1IdVu9Nv6gjd-22" value="Extend" style="edgeLabel;html=1;align=center;verticalAlign=middle;resizable=0;points=[];" vertex="1" connectable="0" parent="i4aStX0e1IdVu9Nv6gjd-21">
          <mxGeometry x="0.0196" y="-3" relative="1" as="geometry">
            <mxPoint as="offset" />
          </mxGeometry>
        </mxCell>
        <mxCell id="i4aStX0e1IdVu9Nv6gjd-23" value="محاسبه سود" style="ellipse;whiteSpace=wrap;html=1;" vertex="1" parent="1">
          <mxGeometry x="800" y="180" width="90" height="60" as="geometry" />
        </mxCell>
        <mxCell id="i4aStX0e1IdVu9Nv6gjd-24" value="بروزرسانی تراز" style="ellipse;whiteSpace=wrap;html=1;" vertex="1" parent="1">
          <mxGeometry x="730" y="300" width="100" height="60" as="geometry" />
        </mxCell>
        <mxCell id="i4aStX0e1IdVu9Nv6gjd-25" value="" style="endArrow=none;dashed=1;html=1;dashPattern=1 3;strokeWidth=2;rounded=0;exitX=0;exitY=0;exitDx=0;exitDy=0;" edge="1" parent="1" source="i4aStX0e1IdVu9Nv6gjd-24">
          <mxGeometry width="50" height="50" relative="1" as="geometry">
            <mxPoint x="590" y="290" as="sourcePoint" />
            <mxPoint x="640" y="240" as="targetPoint" />
          </mxGeometry>
        </mxCell>
        <mxCell id="i4aStX0e1IdVu9Nv6gjd-26" value="include" style="edgeLabel;html=1;align=center;verticalAlign=middle;resizable=0;points=[];" vertex="1" connectable="0" parent="i4aStX0e1IdVu9Nv6gjd-25">
          <mxGeometry x="-0.0132" y="6" relative="1" as="geometry">
            <mxPoint as="offset" />
          </mxGeometry>
        </mxCell>
        <mxCell id="i4aStX0e1IdVu9Nv6gjd-27" value="" style="endArrow=none;dashed=1;html=1;dashPattern=1 3;strokeWidth=2;rounded=0;entryX=0;entryY=0.5;entryDx=0;entryDy=0;exitX=1.019;exitY=0.646;exitDx=0;exitDy=0;exitPerimeter=0;" edge="1" parent="1" source="i4aStX0e1IdVu9Nv6gjd-12" target="i4aStX0e1IdVu9Nv6gjd-24">
          <mxGeometry width="50" height="50" relative="1" as="geometry">
            <mxPoint x="550" y="320" as="sourcePoint" />
            <mxPoint x="580" y="270" as="targetPoint" />
          </mxGeometry>
        </mxCell>
        <mxCell id="i4aStX0e1IdVu9Nv6gjd-28" value="include" style="edgeLabel;html=1;align=center;verticalAlign=middle;resizable=0;points=[];" vertex="1" connectable="0" parent="i4aStX0e1IdVu9Nv6gjd-27">
          <mxGeometry x="-0.0341" y="-4" relative="1" as="geometry">
            <mxPoint as="offset" />
          </mxGeometry>
        </mxCell>
      </root>
    </mxGraphModel>
  </diagram>
</mxfile>
